<?xml version="1.0" standalone="no"?>
<!DOCTYPE svg PUBLIC "-//W3C//DTD SVG 20010904//EN"
 "http://www.w3.org/TR/2001/REC-SVG-20010904/DTD/svg10.dtd">
<svg version="1.0" xmlns="http://www.w3.org/2000/svg"
 width="700.000000pt" height="700.000000pt" viewBox="0 0 700.000000 700.000000"
 preserveAspectRatio="xMidYMid meet">
<metadata>
Created by potrace 1.14, written by Peter Selinger 2001-2017
</metadata>
<g transform="translate(0.000000,700.000000) scale(0.100000,-0.100000)"
fill="#000000" stroke="none">
<path d="M3479 6556 c-2 -2 -29 -6 -59 -9 -392 -41 -670 -435 -579 -820 40
-166 151 -329 280 -409 l38 -23 1 -386 0 -386 -707 -1 c-390 0 -733 -3 -763
-7 -327 -39 -616 -240 -778 -540 -25 -46 -72 -168 -78 -205 -3 -14 -9 -41 -14
-60 -17 -67 -21 -135 -22 -337 l0 -203 -112 -1 c-61 0 -122 -2 -136 -5 -185
-32 -340 -165 -400 -343 -27 -81 -29 -220 -4 -304 34 -117 144 -250 249 -301
101 -49 146 -58 295 -60 l105 -1 1 -165 c1 -91 4 -203 8 -250 33 -456 383
-842 831 -919 53 -9 512 -12 1905 -9 l1835 3 89 28 c209 65 381 182 519 352
70 87 137 219 173 343 35 120 34 119 38 382 l4 234 98 2 c166 2 255 23 343 82
142 95 219 228 228 393 10 157 -38 283 -146 389 -115 112 -221 150 -420 150
l-106 0 0 223 c-1 237 -10 311 -52 437 -126 376 -457 643 -849 686 -32 3 -374
7 -759 8 l-700 1 0 378 c0 208 2 382 5 385 3 4 23 20 45 36 305 221 377 634
165 941 -111 160 -315 276 -499 284 -30 1 -58 4 -61 6 -4 3 -9 3 -11 1z m1811
-2380 c252 -42 452 -215 539 -466 l26 -75 2 -945 c2 -759 0 -957 -11 -1005
-63 -280 -274 -485 -551 -533 -51 -9 -3535 -9 -3595 0 -276 40 -521 293 -556
573 -9 75 -10 1776 -1 1867 14 141 90 292 196 396 65 63 185 142 215 142 8 0
17 4 21 9 5 10 125 38 180 43 72 7 3495 1 3535 -6z"/>
<path d="M2225 3163 c-47 -9 -143 -48 -185 -76 -147 -100 -230 -259 -225 -433
3 -100 10 -130 52 -217 62 -126 186 -228 322 -263 153 -39 306 -9 428 83 182
137 252 375 172 589 -83 221 -327 358 -564 317z"/>
<path d="M4543 3150 c-355 -99 -487 -546 -242 -822 235 -266 673 -209 829 108
72 147 72 299 0 449 -106 219 -352 331 -587 265z"/>
</g>
</svg>
