<svg xmlns="http://www.w3.org/2000/svg" xmlns:xlink="http://www.w3.org/1999/xlink" width="32" zoomAndPan="magnify" viewBox="0 0 375 374.999991" height="32" preserveAspectRatio="xMidYMid meet" version="1.0"><defs><clipPath id="89566fc038"><path d="M 6.648438 23 L 368.148438 23 L 368.148438 331.75 L 6.648438 331.75 Z M 6.648438 23 " clip-rule="nonzero"/></clipPath></defs><g clip-path="url(#89566fc038)"><path fill="#ffffff" d="M 277.773438 232.324219 C 277.773438 247.335938 265.640625 259.488281 250.65625 259.488281 C 235.699219 259.488281 223.566406 247.335938 223.566406 232.324219 C 223.566406 217.3125 235.699219 205.160156 250.65625 205.160156 C 265.640625 205.160156 277.773438 217.3125 277.773438 232.324219 Z M 151.261719 232.324219 C 151.261719 247.335938 139.097656 259.488281 124.140625 259.488281 C 109.15625 259.488281 97.023438 247.335938 97.023438 232.324219 C 97.023438 217.3125 109.15625 205.160156 124.140625 205.160156 C 139.097656 205.160156 151.261719 217.3125 151.261719 232.324219 Z M 313.941406 277.585938 C 313.910156 297.582031 297.734375 313.78125 277.773438 313.78125 L 97.023438 313.78125 C 77.0625 313.78125 60.886719 297.582031 60.886719 277.585938 L 60.886719 187.0625 C 60.886719 167.070312 77.0625 150.867188 97.023438 150.835938 L 277.773438 150.835938 C 297.734375 150.867188 313.910156 167.070312 313.941406 187.0625 Z M 341.03125 205.160156 L 331.980469 205.160156 L 331.980469 187.0625 C 331.980469 157.070312 307.714844 132.738281 277.773438 132.738281 L 205.46875 132.738281 L 205.46875 91.527344 C 222.765625 81.527344 228.703125 59.378906 218.691406 42.054688 C 208.707031 24.726562 186.628906 18.8125 169.328125 28.808594 C 152.03125 38.804688 146.09375 60.953125 156.109375 78.25 C 159.253906 83.777344 163.84375 88.34375 169.328125 91.527344 L 169.328125 132.738281 L 97.023438 132.738281 C 67.082031 132.738281 42.785156 157.070312 42.785156 187.0625 L 42.785156 205.160156 L 33.769531 205.160156 C 18.78125 205.160156 6.648438 217.3125 6.648438 232.324219 C 6.648438 247.335938 18.78125 259.488281 33.769531 259.488281 L 42.785156 259.488281 L 42.785156 277.585938 C 42.785156 307.578125 67.082031 331.914062 97.023438 331.914062 L 277.773438 331.914062 C 307.714844 331.914062 331.980469 307.578125 331.980469 277.585938 L 331.980469 259.488281 L 341.03125 259.488281 C 356.015625 259.488281 368.148438 247.335938 368.148438 232.324219 C 368.148438 217.3125 356.015625 205.160156 341.03125 205.160156 " fill-opacity="1" fill-rule="nonzero"/></g></svg>